<svg id="Layer_1" data-name="Layer 1" xmlns="http://www.w3.org/2000/svg" xmlns:xlink="http://www.w3.org/1999/xlink" viewBox="0 0 171.7642 47.4094">
  <defs>
    <linearGradient id="linear-gradient" x1="2.0233" y1="37.3755" x2="15.3224" y2="14.8936" gradientUnits="userSpaceOnUse">
      <stop offset="0" stop-color="#834a96"/>
      <stop offset="1" stop-color="#552c72"/>
    </linearGradient>
    <linearGradient id="linear-gradient-2" x1="43.0489" y1="31.4774" x2="18.3322" y2="31.4774" gradientUnits="userSpaceOnUse">
      <stop offset="0" stop-color="#dc3f53"/>
      <stop offset="1" stop-color="#a92422"/>
    </linearGradient>
    <linearGradient id="linear-gradient-3" x1="19.2008" y1="-0.4398" x2="32.5" y2="19.5089" gradientUnits="userSpaceOnUse">
      <stop offset="0" stop-color="#87c065"/>
      <stop offset="1" stop-color="#569436"/>
    </linearGradient>
  </defs>
  <g>
    <path id="fullLogo" d="M64.7033,36.5279A14.7362,14.7362,0,0,1,49.6408,21.9832,14.7427,14.7427,0,0,1,64.7033,7.4024,14.5775,14.5775,0,0,1,79.6545,22.0943C79.6545,30.0882,72.808,36.5279,64.7033,36.5279Zm0-25.906A11.1148,11.1148,0,0,0,53.3787,21.8353c0,6.07,4.9222,11.51,11.0655,11.51A11.2027,11.2027,0,0,0,75.88,22.0577,11.179,11.179,0,0,0,64.7033,10.6219Z" style="fill: #3c3c3b"/>
    <path id="fullLogo-2" data-name="fullLogo" d="M82.8966,45.4094V19.5407a14.5733,14.5733,0,0,1,7.8457-2.2573c5.107,0,9.8813,3.1829,9.8813,9.6219,0,4.9961-3.22,9.5853-8.8822,9.5853a9.0927,9.0927,0,0,1-5.588-2.1462v11.065Zm3.2568-14.3218a6.98,6.98,0,0,0,5.4029,2.59c3.0348,0,5.6254-2.5536,5.6254-6.7353,0-3.9227-2.5167-6.8466-6.7354-6.8466a8.6749,8.6749,0,0,0-4.2929,1.2213Z" style="fill: #3c3c3b"/>
    <path id="fullLogo-3" data-name="fullLogo" d="M131.0243,33.7152c-1.0361,1.3691-3.9227,2.7754-7.6606,2.7754-5.5514,0-9.5483-3.7749-9.5483-9.5108,0-5.6625,3.8121-9.6964,9.3632-9.6964,5.6993,0,8.4007,4.478,8.4007,9.289v.9622h-14.47a6.9117,6.9117,0,0,0,.1112,1.1106c.6662,3.6637,3.59,5.1439,6.8465,5.1439a7.9191,7.9191,0,0,0,5.81-2.2573Zm-2.7387-8.8821c-.4811-2.7754-1.9983-4.8849-5.1809-4.8849a5.72,5.72,0,0,0-5.8843,4.8849Z" style="fill: #3c3c3b"/>
    <path id="fullLogo-4" data-name="fullLogo" d="M140.356,36.3428l-8.401-18.578h3.5527L140.06,28.46a18.6748,18.6748,0,0,1,.9994,2.7381h.037a20.2841,20.2841,0,0,1,.9622-2.7381l4.478-10.6953h3.5158l-8.29,18.578Z" style="fill: #3c3c3b"/>
    <path id="fullLogo-5" data-name="fullLogo" d="M160.0308,36.4906a9.6043,9.6043,0,1,1,9.7334-9.5853A9.5822,9.5822,0,0,1,160.0308,36.4906Zm6.2915-9.5853c0-3.9966-2.8866-6.8465-6.2915-6.8465-3.7376,0-6.3652,2.8866-6.3652,6.9577a6.5461,6.5461,0,0,0,6.2912,6.7726C163.7317,33.7891,166.3223,31.0137,166.3223,26.9053Z" style="fill: #3c3c3b"/>
    <polygon id="fullLogo-6" data-name="fullLogo" points="108.39 11.512 105.133 13.393 105.133 17.801 101.765 17.801 101.765 20.503 105.133 20.503 105.133 35.973 108.39 35.973 108.39 20.503 112.868 20.503 112.868 17.801 108.39 17.801 108.39 11.512" style="fill: #3c3c3b"/>
    <g id="logoMark">
      <path id="logoMark_PathItem_" data-name="logoMark &lt;PathItem&gt;" d="M7.4523,22.0052a14.4755,14.4755,0,0,1,3.429-9.3725L6.1052,9.8762A19.9883,19.9883,0,0,0,12.923,39.8256V33.37A14.5185,14.5185,0,0,1,7.4523,22.0052Z" style="fill: url(#linear-gradient)"/>
      <polygon id="logoMark_PathItem_2" data-name="logoMark &lt;PathItem&gt;" points="16.19 9.876 6.105 9.876 24.881 20.713 30.05 17.878 16.19 9.876" style="fill: #834a96"/>
      <path id="logoMark_PathItem_3" data-name="logoMark &lt;PathItem&gt;" d="M29.2776,34.6022a14.4754,14.4754,0,0,1-9.8313,1.7167l.0008,5.5144a19.9882,19.9882,0,0,0,22.528-20.879l-5.59,3.2276A14.5188,14.5188,0,0,1,29.2776,34.6022Z" style="fill: url(#linear-gradient-2)"/>
      <polygon id="logoMark_PathItem_4" data-name="logoMark &lt;PathItem&gt;" points="14.404 33.099 19.447 41.834 19.444 20.155 14.404 17.096 14.404 33.099" style="fill: #dc3f53"/>
      <path id="logoMark_PathItem_5" data-name="logoMark &lt;PathItem&gt;" d="M29.2743,9.4025a14.4756,14.4756,0,0,1,6.4023,7.6558L40.4518,14.3A19.9883,19.9883,0,0,0,11.106,5.23l5.59,3.2276A14.5188,14.5188,0,0,1,29.2743,9.4025Z" style="fill: url(#linear-gradient-3)"/>
      <polygon id="logoMark_PathItem_6" data-name="logoMark &lt;PathItem&gt;" points="35.409 23.034 40.452 14.3 21.679 25.142 21.55 31.036 35.409 23.034" style="fill: #87c065"/>
    </g>
  </g>
</svg>
